<svg xmlns="http://www.w3.org/2000/svg" width="861" height="1218" viewBox="0 0 861 1218">
<g>
<path d="M 117.68 792.91 C115.31,794.06 112.27,794.98 110.93,794.96 C107.35,794.90 103.23,792.34 101.57,789.13 C99.23,784.62 97.73,773.51 98.19,764.16 C98.57,756.38 99.08,754.51 103.26,745.72 C113.41,724.34 139.37,685.35 162.74,656.37 C178.20,637.19 187.78,621.35 196.53,600.49 C214.84,556.83 221.80,500.60 215.54,447.01 C214.19,435.47 214.19,432.86 215.52,434.19 C216.27,434.94 218.59,447.52 220.65,462.00 C223.19,479.88 223.20,527.47 220.66,544.50 C215.91,576.40 208.48,601.19 196.07,626.50 C187.51,643.96 180.66,654.91 166.89,673.14 C135.74,714.40 123.01,743.85 122.44,776.00 C122.31,783.42 122.16,789.80 122.10,790.16 C122.05,790.52 120.06,791.76 117.68,792.91 ZM 657.20 428.47 C654.35,433.78 650.60,435.72 649.36,432.51 C648.77,430.95 649.34,422.90 650.63,414.76 C651.11,411.69 650.88,410.91 649.36,410.38 C640.40,407.31 617.23,397.21 602.50,389.95 C571.36,374.63 561.13,367.00 528.16,334.55 C503.25,310.04 484.62,289.17 463.08,261.64 C454.45,250.61 453.91,249.66 455.45,248.14 C456.99,246.62 457.40,246.82 461.21,251.00 C512.07,306.80 550.70,341.84 587.50,365.56 C605.19,376.96 625.10,385.05 656.31,393.53 C670.70,397.44 674.00,399.59 674.00,405.04 C674.00,407.26 672.31,409.81 666.95,415.70 C663.07,419.95 658.68,425.70 657.20,428.47 Z" fill="rgb(102,37,131)"/>
<path d="M 117.68 792.91 C120.06,791.76 122.05,790.52 122.10,790.16 C122.16,789.80 122.31,783.42 122.44,776.00 C123.01,743.85 135.74,714.40 166.89,673.14 C180.66,654.91 187.51,643.96 196.07,626.50 C208.48,601.19 215.91,576.40 220.66,544.50 C221.61,538.12 222.20,527.44 222.44,515.64 C222.21,527.43 221.62,538.11 220.68,544.50 C219.71,551.10 218.68,557.29 218.39,558.25 C217.89,559.91 223.43,560.00 324.93,560.00 L 432.00 560.00 L 432.00 731.00 L 424.46 731.00 C403.78,731.00 354.84,735.20 324.00,739.62 C289.34,744.59 249.78,752.91 214.50,762.67 C195.37,767.96 175.70,774.03 176.17,774.50 C176.36,774.69 184.16,772.68 193.51,770.03 C249.34,754.22 312.65,743.75 375.64,739.92 C401.25,738.37 473.49,739.25 497.00,741.40 C598.02,750.65 683.24,772.25 775.50,811.96 C794.17,820.00 841.96,844.05 842.95,845.91 C843.62,847.17 836.36,861.17 813.05,903.54 C795.79,934.92 781.59,959.63 780.73,959.80 C779.89,959.97 769.82,955.42 758.35,949.68 C680.20,910.60 602.98,886.96 517.79,876.04 C503.61,874.22 468.31,871.00 462.53,871.00 C460.65,871.00 460.09,870.30 459.53,867.25 C458.51,861.79 453.23,852.41 449.14,848.82 C439.77,840.59 426.16,838.25 415.24,842.98 C408.27,846.00 399.89,855.01 397.08,862.50 C395.94,865.57 395.00,868.67 395.00,869.40 C395.00,870.40 391.83,870.90 382.25,871.43 C282.69,876.90 180.86,904.53 90.20,950.68 C80.14,955.81 71.14,959.99 70.20,959.98 C67.70,959.95 6.43,848.13 7.75,846.02 C9.00,844.03 41.73,827.22 64.50,816.87 C78.87,810.34 109.83,797.48 120.39,793.64 C121.43,793.26 122.04,792.71 121.74,792.40 C121.43,792.10 119.82,792.56 118.14,793.43 C116.09,794.49 113.84,794.96 111.66,794.91 C113.19,794.69 115.67,793.88 117.68,792.91 ZM 657.20 428.47 C657.61,427.69 658.26,426.68 659.05,425.54 C658.33,426.59 657.76,427.51 657.40,428.21 C656.08,430.81 654.17,433.37 653.16,433.91 C651.71,434.69 650.86,437.72 649.15,448.20 C645.66,469.55 644.75,481.13 644.77,504.00 C644.78,523.20 646.07,540.28 648.62,555.25 L 649.26 559.00 L 435.00 559.00 L 435.00 268.47 L 446.05 257.48 L 457.09 246.50 L 460.08 249.77 C457.30,246.80 456.82,246.78 455.45,248.14 C453.91,249.66 454.45,250.61 463.08,261.64 C484.62,289.17 503.25,310.04 528.16,334.55 C561.13,367.00 571.36,374.63 602.50,389.95 C617.23,397.21 640.40,407.31 649.36,410.38 C650.88,410.91 651.11,411.69 650.63,414.76 C649.34,422.90 648.77,430.95 649.36,432.51 C650.60,435.72 654.35,433.78 657.20,428.47 ZM 461.69 1027.49 C448.72,1029.48 426.97,1030.16 416.01,1028.92 C367.36,1023.43 306.19,999.55 255.50,966.27 C232.55,951.20 207.53,931.52 195.64,919.19 L 191.77 915.18 L 204.14 911.17 C240.15,899.47 275.50,890.80 312.95,884.48 C332.82,881.12 366.84,877.12 382.12,876.35 L 394.73 875.71 L 395.41 881.16 C395.79,884.16 397.16,888.92 398.47,891.74 L 400.85 896.87 L 398.51 898.40 C393.70,901.56 393.13,911.37 397.55,915.04 C398.35,915.70 399.00,917.74 399.00,919.57 C399.00,923.87 402.51,927.94 407.02,928.88 C409.98,929.49 410.45,929.97 410.19,932.05 C408.85,942.80 401.92,959.45 394.93,968.71 C392.77,971.57 391.00,974.58 391.00,975.40 C391.00,976.22 390.06,978.47 388.92,980.41 C387.62,982.62 386.95,985.23 387.14,987.42 C387.35,989.86 386.81,991.59 385.35,993.20 C381.87,997.01 381.00,999.58 381.00,1005.98 C381.00,1011.13 381.38,1012.47 383.45,1014.55 L 385.91 1017.00 L 427.02 1017.00 C467.88,1017.00 471.12,1016.76 473.23,1013.60 C473.64,1013.00 473.98,1009.44 473.98,1005.70 C474.00,998.87 472.61,994.58 469.57,992.05 C468.67,991.31 468.00,989.20 468.00,987.13 C467.99,985.13 467.09,982.03 466.00,980.23 C464.90,978.43 464.00,976.26 464.00,975.42 C464.00,974.57 462.39,971.77 460.42,969.19 C453.40,960.00 446.14,942.74 444.81,932.05 C444.55,929.97 445.02,929.49 447.98,928.88 C452.74,927.89 456.00,923.89 456.00,919.05 C456.00,916.64 456.53,915.01 457.44,914.66 C458.23,914.36 459.32,912.51 459.86,910.56 C461.14,905.92 459.64,900.47 456.53,898.43 L 454.17 896.88 L 456.77 891.19 C458.20,888.06 459.57,883.14 459.81,880.25 L 460.25 875.00 L 464.69 875.00 C472.20,875.00 497.59,876.99 516.50,879.07 C564.55,884.35 615.75,895.35 660.49,910.03 L 676.48 915.27 L 669.99 921.26 C611.07,975.63 529.83,1017.07 461.69,1027.49 ZM 757.80 908.07 C760.93,909.07 765.33,909.92 767.57,909.95 C787.86,910.21 804.21,886.78 797.02,867.74 C790.64,850.83 766.67,840.05 749.82,846.51 C748.73,846.93 747.84,845.86 746.61,842.64 C742.49,831.86 723.86,821.00 709.50,821.00 C706.76,821.00 705.29,820.36 703.87,818.56 C701.55,815.61 692.34,812.00 687.12,812.00 C684.59,812.00 682.71,811.33 681.51,810.01 C679.89,808.22 654.46,799.20 646.50,797.59 C641.40,796.56 637.48,799.80 635.53,806.68 C634.62,809.88 632.88,815.88 631.66,820.00 L 629.44 827.50 L 625.47 827.76 C623.29,827.90 621.00,827.68 620.38,827.26 C619.59,826.72 620.31,822.38 622.85,812.37 C625.86,800.50 626.24,797.83 625.26,795.66 C623.55,791.91 616.72,788.81 609.03,788.30 C605.08,788.03 600.96,787.04 598.61,785.79 C596.27,784.54 592.07,783.52 588.08,783.24 C581.89,782.80 581.20,782.96 578.05,785.61 C576.18,787.18 574.50,788.02 574.31,787.48 C572.18,781.37 567.66,778.34 559.18,777.34 C553.43,776.65 549.80,777.34 547.61,779.54 C546.23,780.91 545.66,780.76 541.97,778.09 C534.81,772.91 529.01,771.50 514.77,771.50 C502.26,771.50 502.00,771.54 499.32,774.22 C497.03,776.52 496.43,778.32 495.48,785.72 L 494.37 794.50 L 491.56 785.50 C487.93,773.84 486.58,771.33 482.70,768.96 C476.51,765.18 460.43,766.82 458.67,771.41 C458.23,772.56 457.31,772.11 454.65,769.45 L 451.20 766.00 L 432.17 766.00 C421.70,766.00 412.00,766.43 410.61,766.96 C407.07,768.31 405.00,772.94 405.00,779.55 C405.00,784.64 405.34,785.54 408.40,788.60 C410.52,790.72 412.78,792.00 414.40,792.00 L 417.00 792.00 L 417.00 821.15 L 419.80 823.96 C423.23,827.38 430.65,828.71 436.93,827.02 C440.08,826.17 442.01,826.18 444.65,827.05 C446.59,827.69 451.55,828.04 455.69,827.83 C462.41,827.49 463.47,827.16 465.56,824.73 C468.67,821.10 472.03,821.19 474.17,824.95 C476.29,828.67 481.54,830.17 491.85,830.00 C496.61,829.92 501.57,830.52 505.00,831.59 C508.68,832.74 514.15,833.34 521.50,833.41 C531.75,833.49 532.83,833.31 537.39,830.74 L 542.29 827.98 L 545.58 831.82 C550.68,837.78 559.46,841.29 570.52,841.80 C577.12,842.11 580.52,841.81 583.18,840.70 C586.75,839.21 586.84,839.22 587.43,841.57 C587.76,842.89 589.04,844.62 590.27,845.41 C592.90,847.09 619.20,854.00 622.99,854.00 C624.43,854.00 626.03,854.42 626.55,854.94 C628.09,856.48 658.47,866.00 661.83,866.00 C663.52,866.00 666.56,867.12 668.57,868.49 C672.55,871.18 677.97,872.99 682.13,872.99 C683.57,873.00 685.27,873.62 685.89,874.37 C688.15,877.09 699.03,881.22 702.78,880.78 C705.95,880.41 706.86,880.86 710.44,884.58 C715.08,889.41 720.37,891.27 728.41,890.89 C733.49,890.66 733.70,890.76 738.51,895.91 C744.20,902.00 749.77,905.50 757.80,908.07 ZM 71.92 911.41 C75.36,913.64 85.51,912.99 93.20,910.06 C100.64,907.23 108.13,900.46 110.87,894.08 C112.98,889.17 113.05,889.12 116.08,890.18 C117.77,890.77 122.64,891.05 126.90,890.80 C140.48,890.01 153.34,882.23 158.70,871.56 C160.10,868.78 161.33,866.40 161.43,866.27 C161.53,866.15 164.07,866.99 167.06,868.13 C178.13,872.38 195.19,868.85 205.05,860.30 C208.25,857.52 208.95,857.33 214.57,857.76 C222.46,858.35 230.32,855.25 232.68,850.61 C233.54,848.90 234.36,847.38 234.48,847.23 C234.61,847.07 237.37,847.65 240.61,848.51 C247.37,850.30 253.46,849.86 262.50,846.91 C276.53,842.33 284.04,832.25 283.96,818.09 C283.89,804.94 278.57,794.81 268.94,789.50 C263.90,786.72 262.77,786.50 253.50,786.54 C241.10,786.58 234.43,788.93 226.73,795.96 L 221.45 800.79 L 219.12 798.89 C214.28,794.98 198.47,798.27 195.26,803.86 C193.79,806.43 193.48,806.50 184.10,806.50 C175.24,806.50 173.92,806.76 167.84,809.76 C159.85,813.69 153.94,819.21 150.54,825.91 L 148.02 830.90 L 143.76 829.01 C141.42,827.98 137.22,826.83 134.44,826.46 C129.54,825.81 129.39,825.70 129.80,822.89 C130.38,818.94 127.73,815.23 122.67,812.94 C116.92,810.33 111.71,810.44 108.68,813.25 C107.35,814.49 104.79,818.95 102.99,823.16 C100.30,829.46 99.82,831.67 100.26,835.61 C100.71,839.57 100.38,841.01 98.40,843.93 C97.08,845.88 96.00,848.03 96.00,848.73 L 96.00 848.75 C96.00,849.28 96.00,849.63 95.83,849.79 C95.48,850.10 94.48,849.68 91.49,848.43 L 91.43 848.41 C81.38,844.21 62.33,852.69 55.54,864.39 C50.29,873.42 51.38,881.68 58.78,888.98 C62.63,892.78 63.31,894.03 63.09,896.85 C62.79,900.70 67.59,908.61 71.92,911.41 ZM 324.50 700.06 C337.70,704.39 350.13,707.94 352.12,707.96 C359.35,708.04 359.84,707.11 371.84,670.23 C373.31,665.71 374.64,661.64 375.84,657.97 C385.53,628.25 386.57,625.07 385.51,622.92 C385.25,622.39 384.87,621.93 384.46,621.16 C382.52,617.53 382.28,617.43 355.00,608.31 C336.44,602.11 326.54,599.27 324.55,599.57 C318.54,600.50 317.64,602.41 304.99,641.11 C298.38,661.34 292.71,679.20 292.39,680.80 C291.62,684.64 294.31,689.78 297.80,691.14 C299.28,691.72 311.30,695.73 324.50,700.06 ZM 300.28 837.06 C303.97,837.98 313.20,837.41 320.50,835.82 C327.99,834.18 336.07,829.73 340.71,824.70 L 344.85 820.21 L 347.00 822.50 C348.19,823.77 351.88,826.02 355.20,827.51 C360.76,830.01 362.03,830.19 371.37,829.81 C386.83,829.18 395.17,824.45 400.71,813.18 C403.14,808.24 403.50,806.33 403.50,798.50 C403.50,790.67 403.14,788.76 400.70,783.80 C397.46,777.19 393.70,773.70 386.00,770.13 C381.35,767.98 379.11,767.59 371.50,767.63 C359.74,767.70 352.55,770.35 345.77,777.13 L 340.93 781.98 L 337.21 779.53 C328.20,773.58 314.96,772.30 300.55,775.99 C291.30,778.35 286.65,781.01 285.07,784.82 C283.97,787.49 286.00,801.95 291.11,827.78 C292.24,833.47 294.32,835.58 300.28,837.06 ZM 774.50 898.90 C768.43,900.55 764.09,900.20 757.54,897.50 C739.83,890.22 733.81,877.17 741.32,862.35 C748.03,849.12 761.13,845.46 775.56,852.80 C782.62,856.39 787.15,860.86 789.92,867.00 C792.38,872.45 792.47,875.04 790.44,881.91 C788.41,888.71 780.36,897.30 774.50,898.90 ZM 136.41 878.95 C128.84,881.78 119.77,881.69 114.55,878.73 C106.53,874.18 100.06,861.55 101.47,853.19 C102.95,844.42 109.93,837.04 120.51,833.08 C136.86,826.96 150.35,834.54 154.08,851.94 C156.46,863.04 149.18,874.17 136.41,878.95 ZM 255.55 838.69 C252.22,839.39 248.60,839.92 247.50,839.88 C239.55,839.55 232.44,835.03 228.39,827.71 C225.88,823.17 225.51,821.46 225.50,814.34 C225.50,806.86 225.75,805.82 228.54,801.84 C230.71,798.75 233.54,796.50 238.39,794.03 C244.39,790.96 246.10,790.55 252.85,790.54 C263.72,790.53 269.90,794.07 274.61,803.00 C275.99,805.61 276.47,808.69 276.48,815.08 C276.50,822.96 276.26,824.01 273.57,827.89 C269.93,833.15 263.45,837.03 255.55,838.69 ZM 384.50 817.28 C379.13,820.10 363.22,820.81 358.01,818.46 C350.23,814.97 345.96,808.08 345.23,797.89 C344.66,790.01 346.06,785.14 350.26,780.36 C354.89,775.08 360.32,772.74 369.13,772.21 C378.51,771.65 385.34,773.66 389.71,778.27 C396.27,785.18 398.12,793.07 395.55,803.10 C393.74,810.19 390.77,813.99 384.50,817.28 ZM 314.50 826.96 C313.79,827.06 313.12,827.16 312.47,827.25 C306.71,828.10 303.42,828.58 301.26,827.24 C298.17,825.32 297.39,819.65 294.94,805.91 C292.94,794.69 291.49,785.16 291.71,784.74 C292.63,783.07 298.08,781.05 305.99,779.44 C327.66,775.05 341.00,783.19 341.00,800.82 C341.00,808.54 339.52,812.67 335.12,817.30 C330.32,822.34 323.06,825.74 314.50,826.96 ZM 532.33 822.64 C530.52,823.39 525.81,823.97 521.78,823.94 C514.60,823.89 501.81,821.23 500.04,819.43 C499.50,818.87 500.01,810.12 501.32,797.60 C502.88,782.64 503.19,777.64 505.71,775.95 C506.97,775.11 508.80,775.10 511.61,775.08 C512.07,775.08 512.55,775.08 513.07,775.07 C525.40,774.91 535.52,778.26 540.46,784.14 C543.96,788.30 543.34,792.26 538.47,796.79 L 534.93 800.09 L 537.97 803.12 C543.86,809.01 540.97,819.03 532.33,822.64 ZM 283.38 697.56 C285.10,698.31 288.28,698.94 290.46,698.96 L 294.42 699.00 L 290.13 694.64 C285.65,690.07 283.62,684.63 284.65,680.00 C285.39,676.70 308.89,603.99 309.58,602.87 C309.88,602.39 303.98,602.00 296.48,602.00 L 282.85 602.00 L 279.92 604.92 L 277.00 607.85 L 277.00 649.70 L 277.00 652.94 C277.00,686.87 277.00,693.31 280.15,695.89 C280.98,696.57 282.04,696.98 283.38,697.56 ZM 268.31 706.50 C270.81,708.26 276.68,708.45 280.68,706.92 L 283.50 705.84 L 280.03 704.38 C275.73,702.56 273.28,700.39 271.15,696.50 C269.72,693.89 269.43,687.99 269.00,651.32 L 268.50 609.15 L 257.78 612.61 C244.84,616.80 241.00,619.60 241.00,624.87 C241.00,626.90 245.95,643.84 252.00,662.53 C265.48,704.16 265.66,704.65 268.31,706.50 ZM 732.57 879.89 C732.19,880.50 729.50,881.00 726.59,881.00 C718.03,881.00 712.05,875.79 712.01,868.32 C712.00,864.08 710.28,859.74 708.81,860.23 C708.16,860.45 706.89,862.85 705.98,865.56 C704.02,871.44 702.19,872.06 695.54,869.12 C692.50,867.78 691.02,866.51 691.06,865.31 C691.09,864.31 694.38,855.17 698.37,845.00 L 705.62 826.50 L 710.65 826.20 C723.73,825.43 740.93,837.39 740.98,847.30 C741.02,853.15 735.81,859.11 729.44,860.52 C727.82,860.87 725.97,861.33 725.32,861.52 C723.31,862.13 727.50,874.14 730.60,876.64 C732.06,877.82 732.95,879.28 732.57,879.89 ZM 488.45 505.12 C492.33,508.34 495.77,510.98 496.10,510.98 C496.75,511.00 507.04,473.40 507.02,471.09 C507.01,470.32 505.23,467.39 503.07,464.59 C498.37,458.51 480.70,441.00 479.25,441.00 C477.13,441.00 469.94,464.19 468.56,475.50 C468.03,479.85 468.33,481.15 470.88,485.50 C474.93,492.41 480.16,498.26 488.45,505.12 ZM 501.24 510.75 C500.57,512.59 503.51,512.31 514.60,509.50 C527.25,506.29 537.87,502.23 540.51,499.58 C541.65,498.44 543.59,494.35 544.82,490.50 C546.94,483.84 552.15,460.82 551.64,460.31 C551.09,459.75 513.40,471.32 512.38,472.36 C511.77,472.99 509.11,481.60 506.48,491.50 C503.85,501.40 501.50,510.06 501.24,510.75 ZM 507.89 463.75 C509.12,465.54 510.72,467.00 511.43,467.00 C512.45,467.00 542.24,458.38 547.81,456.47 C551.63,455.16 525.16,428.00 520.05,428.00 C516.08,428.00 497.58,432.80 490.19,435.75 L 483.87 438.26 L 494.75 449.38 C500.74,455.50 506.65,461.96 507.89,463.75 ZM 494.63 818.25 C495.07,819.79 494.36,820.00 488.82,819.98 C481.64,819.97 480.52,819.49 479.14,815.87 C478.06,813.04 474.92,812.00 467.40,812.00 C463.58,812.00 462.86,812.36 461.50,815.00 C460.02,817.87 459.66,818.00 453.44,818.00 C448.67,818.00 446.79,817.61 446.38,816.54 C445.85,815.16 461.45,778.07 464.58,773.25 C465.77,771.42 466.96,771.00 470.96,771.00 C480.01,771.00 480.35,771.37 484.82,785.69 C488.12,796.28 491.79,808.46 494.63,818.25 ZM 581.32 830.88 C577.81,832.68 565.18,832.17 559.50,829.98 C553.64,827.73 548.31,822.17 547.41,817.36 C546.57,812.88 551.44,782.97 553.18,781.88 C554.64,780.97 561.53,781.77 564.25,783.17 C566.48,784.31 566.45,786.16 564.00,799.00 C561.32,813.06 561.37,817.44 564.22,819.44 C567.25,821.56 572.31,821.42 574.37,819.15 C575.33,818.08 577.34,811.19 579.11,802.90 C580.79,794.98 582.55,788.11 583.01,787.63 C584.26,786.33 592.61,787.85 594.92,789.80 C596.92,791.50 596.92,791.54 593.55,806.00 C591.69,813.97 589.73,821.62 589.19,823.00 C588.12,825.73 584.74,829.11 581.32,830.88 ZM 665.15 854.25 C664.35,855.21 662.52,855.96 661.10,855.91 C659.05,855.84 645.34,851.57 632.02,846.87 C630.80,846.44 631.65,842.57 636.83,824.92 C640.29,813.14 643.54,803.07 644.06,802.55 C644.65,801.96 650.85,803.45 660.75,806.57 C676.02,811.39 676.51,811.62 676.83,814.43 C677.01,816.02 676.87,818.86 676.52,820.76 C676.27,822.09 676.19,822.98 675.71,823.38 C674.86,824.08 672.74,823.24 666.16,820.64 C665.56,820.41 664.91,820.15 664.23,819.89 C655.58,816.48 654.29,816.61 653.78,820.91 C653.53,823.00 654.25,823.53 660.00,825.47 C667.28,827.92 668.28,829.63 665.53,834.93 C663.67,838.54 663.08,838.61 655.66,836.06 C650.14,834.16 649.99,834.15 649.01,835.99 C646.93,839.86 648.10,840.64 660.74,843.82 C664.72,844.82 668.22,845.89 668.52,846.19 C669.21,846.88 667.11,851.91 665.15,854.25 ZM 564.50 430.15 C571.65,432.81 578.84,434.87 580.48,434.74 C583.33,434.51 583.54,434.15 585.23,427.00 C586.20,422.88 587.28,415.67 587.62,411.00 L 588.24 402.50 L 575.80 397.75 C568.96,395.14 562.42,393.00 561.28,393.00 C557.41,393.00 538.79,416.23 540.47,418.95 C541.60,420.78 550.83,425.08 564.50,430.15 ZM 92.58 899.71 C89.47,901.29 85.17,902.46 81.37,902.76 L 75.20 903.26 L 72.50 899.19 C71.02,896.95 70.10,894.64 70.46,894.06 C70.82,893.48 73.70,893.00 76.85,893.00 C80.80,893.00 83.96,892.30 87.04,890.75 C90.83,888.84 91.50,888.05 91.50,885.50 C91.50,882.09 91.32,882.07 75.41,883.52 C67.45,884.25 67.28,884.22 64.11,881.38 C60.44,878.10 58.94,873.05 60.20,868.26 C62.21,860.60 76.48,851.61 85.67,852.19 C90.08,852.47 90.53,852.73 90.81,855.20 C91.29,859.37 89.40,862.00 85.93,862.00 C79.62,862.00 72.08,867.16 73.40,870.59 C73.92,871.97 74.93,872.14 79.27,871.62 C95.51,869.66 96.31,869.68 99.96,872.17 C104.21,875.07 106.50,880.52 105.56,885.52 C104.68,890.22 98.95,896.48 92.58,899.71 ZM 189.63 858.04 C173.01,863.88 158.31,856.44 155.00,840.52 C153.36,832.58 155.77,825.43 162.16,819.30 C168.96,812.79 184.53,808.07 189.84,810.91 C192.19,812.17 192.70,815.82 190.96,819.07 C190.16,820.57 188.85,821.00 185.12,821.00 C178.10,821.00 171.87,824.54 170.23,829.46 C166.82,839.72 174.88,850.20 184.80,848.40 C189.70,847.51 194.94,844.80 197.92,841.60 C199.26,840.17 200.92,839.00 201.63,839.00 C203.39,839.00 204.49,845.63 203.19,848.47 C201.67,851.82 196.06,855.78 189.63,858.04 ZM 435.75 817.37 C432.65,818.20 428.93,818.04 426.25,816.97 C424.04,816.08 424.00,815.76 424.00,799.03 L 424.00 782.00 L 418.61 782.00 C412.66,782.00 412.00,781.34 412.00,775.39 C412.00,770.23 414.45,769.66 433.47,770.43 C450.14,771.11 450.96,771.36 450.98,775.82 C451.02,780.46 449.30,782.00 444.11,782.00 L 439.30 782.00 L 438.65 790.25 C438.30,794.79 438.01,802.61 438.01,807.63 C438.00,816.26 437.87,816.80 435.75,817.37 ZM 626.20 842.25 C625.37,843.21 623.52,843.95 622.10,843.90 C619.53,843.80 595.13,837.47 594.37,836.71 C594.16,836.49 596.06,827.58 598.61,816.91 C601.16,806.23 603.48,796.45 603.76,795.17 C604.04,793.89 604.87,792.60 605.62,792.32 C607.46,791.61 616.66,793.89 617.88,795.35 C618.54,796.15 617.49,801.82 614.68,812.69 C612.39,821.57 610.76,829.09 611.07,829.40 C611.38,829.71 615.21,830.68 619.57,831.54 C626.71,832.96 629.03,833.32 629.43,834.39 C629.62,834.90 629.39,835.56 629.04,836.57 C628.97,836.77 628.90,836.98 628.82,837.20 C628.21,839.02 627.04,841.29 626.20,842.25 ZM 223.61 846.52 C221.66,847.33 218.56,848.00 216.72,848.00 L 213.39 848.00 L 207.55 829.25 L 207.14 827.92 C201.64,810.27 200.47,806.50 201.84,804.86 C202.25,804.38 202.88,804.08 203.68,803.66 C205.27,802.84 208.23,801.86 210.26,801.48 C210.45,801.44 210.64,801.41 210.82,801.37 C211.72,801.19 212.41,801.05 213.01,801.22 C215.02,801.80 216.05,805.85 221.03,823.50 C223.82,833.40 226.34,842.30 226.63,843.27 C227.01,844.58 226.23,845.43 223.61,846.52 ZM 684.00 862.62 C684.00,862.83 682.76,862.96 681.25,862.92 C677.55,862.81 672.06,860.32 671.33,858.43 C671.01,857.58 674.01,847.69 678.00,836.45 C684.36,818.49 685.50,816.00 687.37,816.02 C690.26,816.05 697.91,819.61 698.53,821.21 C698.80,821.92 695.64,831.44 691.51,842.37 C687.38,853.30 684.00,862.41 684.00,862.62 ZM 557.00 448.34 L 568.50 452.83 L 574.21 446.67 C577.35,443.27 579.93,440.16 579.96,439.75 C579.98,439.34 579.04,439.00 577.88,439.00 C574.33,439.00 555.64,432.35 547.84,428.32 C543.80,426.23 540.13,424.35 539.68,424.15 C537.80,423.31 541.69,440.41 543.83,442.34 C544.75,443.17 550.67,445.87 557.00,448.34 ZM 758.33 887.56 C762.47,889.40 765.75,888.58 769.75,884.73 C773.66,880.97 777.34,871.83 776.49,867.97 C775.68,864.27 772.00,861.04 767.84,860.36 C765.06,859.91 763.76,860.33 761.15,862.53 C757.15,865.89 754.15,871.60 753.37,877.35 C752.63,882.70 754.08,885.69 758.33,887.56 ZM 123.80 867.25 C126.58,870.22 131.40,870.93 135.15,868.92 C138.56,867.10 140.25,861.64 138.92,856.72 C135.34,843.39 127.50,838.35 120.08,844.59 C117.49,846.77 117.00,847.89 117.00,851.63 C117.00,856.56 119.79,862.98 123.80,867.25 ZM 249.02 828.70 C253.67,831.02 260.12,827.34 261.58,821.53 C262.38,818.34 260.39,809.17 258.07,805.36 C254.10,798.83 245.06,799.31 241.68,806.23 C240.09,809.48 240.00,810.68 240.98,815.42 C242.28,821.68 245.46,826.92 249.02,828.70 ZM 366.12 809.37 C369.68,811.87 373.74,811.41 377.00,808.15 C380.59,804.57 381.66,799.16 380.17,792.09 C378.67,784.90 375.89,781.99 370.58,782.03 C363.60,782.09 361.00,785.59 361.00,794.97 C361.00,802.00 362.79,807.04 366.12,809.37 ZM 312.32 816.22 C312.78,816.51 313.10,816.72 313.45,816.82 C314.23,817.06 315.17,816.80 318.25,815.95 L 318.30 815.93 C323.59,814.46 325.99,810.27 325.99,802.50 C325.99,795.93 323.79,791.03 319.91,788.95 C317.57,787.70 309.43,788.17 307.96,789.64 C306.80,790.80 310.81,815.26 312.32,816.22 ZM 454.01 979.52 C455.10,980.82 451.52,981.00 424.07,981.00 C399.38,981.00 393.07,980.74 393.70,979.75 C394.14,979.06 396.64,975.27 399.25,971.32 C405.14,962.42 409.74,951.11 411.98,940.00 C413.59,932.07 413.88,931.48 416.35,931.18 C416.47,931.17 416.59,931.15 416.70,931.14 C417.58,931.03 418.17,930.96 418.50,931.22 C419.17,931.76 418.70,933.72 417.25,939.73 C417.16,940.10 417.07,940.49 416.97,940.89 C414.68,950.48 409.16,962.75 403.21,971.50 L 399.13 977.50 L 425.96 977.77 C448.22,977.99 452.99,978.28 454.01,979.52 ZM 504.57 412.07 C505.33,412.25 506.03,412.43 506.68,412.59 C510.98,413.67 513.03,414.18 513.80,413.41 C514.49,412.72 514.13,410.96 513.44,407.62 C513.33,407.06 513.21,406.45 513.08,405.81 L 511.44 397.61 L 502.49 395.36 C497.58,394.13 493.41,393.26 493.23,393.43 C492.81,393.86 495.93,407.11 496.88,408.93 C497.30,409.72 500.75,411.13 504.57,412.07 ZM 412.30 899.75 L 415.39 903.00 L 411.37 903.00 C406.51,903.00 404.20,900.86 400.59,892.99 C397.11,885.38 396.35,877.74 398.38,870.75 C400.24,864.36 406.12,856.41 411.11,853.56 L 414.50 851.62 L 411.10 855.51 C409.23,857.66 406.58,861.85 405.22,864.84 C403.04,869.59 402.80,871.22 403.26,877.95 C403.85,886.58 407.00,894.18 412.30,899.75 ZM 188.30 842.36 C181.72,845.73 177.00,843.23 177.00,836.40 C177.00,832.66 179.42,831.40 187.94,830.70 C192.23,830.35 193.85,829.71 195.61,827.67 L 197.84 825.08 L 199.36 829.54 C200.19,831.99 200.46,834.00 199.94,834.00 C199.43,834.00 197.32,835.51 195.25,837.36 C193.19,839.21 190.06,841.46 188.30,842.36 ZM 456.42 993.39 C455.55,993.73 440.73,994.00 423.49,994.00 C396.33,994.00 391.93,993.79 390.57,992.43 C388.71,990.57 388.70,990.44 390.04,987.93 C391.43,985.32 394.30,985.49 395.51,988.25 L 396.50 990.50 L 427.25 990.76 C455.04,991.00 461.20,991.56 456.42,993.39 ZM 465.00 1013.00 C465.00,1013.65 450.67,1014.00 424.00,1014.00 L 383.00 1014.00 L 383.00 1010.47 C383.00,1005.76 385.32,1000.43 388.00,999.00 C390.72,997.55 391.48,998.23 390.08,1000.85 C389.49,1001.96 389.00,1004.92 389.00,1007.43 L 389.00 1012.00 L 427.00 1012.00 C451.67,1012.00 465.00,1012.35 465.00,1013.00 ZM 482.02 422.86 C482.06,423.96 490.90,413.60 491.55,411.69 C492.32,409.45 489.09,394.46 488.09,395.64 C487.70,396.11 485.45,398.85 483.11,401.73 L 478.85 406.96 L 480.42 414.59 C481.29,418.78 482.01,422.50 482.02,422.86 ZM 492.65 426.98 C500.55,428.36 504.01,427.43 508.48,422.75 L 512.47 418.58 L 507.98 417.27 C505.52,416.55 501.54,415.85 499.15,415.73 C495.09,415.52 494.53,415.81 490.73,420.25 C488.50,422.87 486.93,425.26 487.24,425.57 C487.55,425.88 489.99,426.52 492.65,426.98 ZM 448.56 914.53 C445.61,916.76 402.42,916.68 399.22,914.44 C395.47,911.82 396.84,906.00 401.20,906.00 C402.45,906.00 403.00,906.76 403.00,908.46 C403.00,909.88 403.83,911.37 404.93,911.96 C406.09,912.58 415.62,913.01 428.68,913.03 C448.08,913.06 450.29,913.23 448.56,914.53 ZM 118.52 827.07 C114.01,834.05 112.37,835.03 108.75,832.92 C106.37,831.54 106.52,830.25 109.96,822.59 C112.68,816.52 113.16,816.00 116.02,816.00 C119.53,816.00 123.00,817.55 123.00,819.11 C123.00,819.68 120.98,823.27 118.52,827.07 ZM 714.62 850.71 C717.53,852.84 720.65,852.20 723.41,848.92 C726.59,845.15 726.73,841.62 723.78,839.56 C719.41,836.49 717.34,837.47 715.01,843.71 C712.98,849.14 712.96,849.50 714.62,850.71 ZM 445.50 926.00 C445.12,926.61 436.89,927.00 424.14,927.00 C402.89,927.00 401.00,926.67 401.00,923.00 C401.00,920.88 402.97,919.00 405.20,919.00 C406.32,919.00 407.00,919.74 407.00,920.96 C407.00,924.40 410.21,925.00 428.49,925.00 C439.99,925.00 445.90,925.35 445.50,926.00 ZM 515.40 813.61 C515.74,814.47 517.43,815.00 519.91,815.00 C524.10,815.00 527.00,812.46 527.00,808.80 C527.00,806.25 522.68,803.81 518.82,804.18 C515.75,804.48 515.48,804.80 515.18,808.36 C515.01,810.48 515.11,812.84 515.40,813.61 ZM 517.67 793.33 C518.79,794.45 524.52,794.08 525.80,792.80 C527.70,790.90 527.26,786.21 525.07,785.04 C522.19,783.50 518.30,783.78 517.61,785.58 C516.80,787.69 516.83,792.50 517.67,793.33 ZM 766.71 879.49 C764.41,883.54 761.76,885.03 760.49,882.98 C759.55,881.46 762.60,873.67 764.97,871.52 C769.19,867.71 770.35,873.05 766.71,879.49 ZM 131.81 862.75 C131.23,867.63 128.88,866.70 125.62,860.30 C123.32,855.75 123.48,852.00 125.98,852.00 C128.44,852.00 132.25,859.03 131.81,862.75 ZM 470.75 802.20 C472.81,802.38 474.79,802.41 475.15,802.26 C475.98,801.93 473.16,790.83 471.92,789.55 C471.41,789.03 471.00,788.81 471.00,789.06 C471.00,789.32 470.10,791.99 469.00,795.00 C467.90,798.01 467.00,800.79 467.00,801.18 C467.00,801.56 468.69,802.03 470.75,802.20 ZM 254.00 820.45 C254.00,823.89 253.62,825.00 252.45,825.00 C249.01,825.00 246.45,811.33 249.69,810.26 C251.56,809.65 254.00,815.43 254.00,820.45 ZM 373.53 802.69 C372.21,809.75 367.69,805.12 368.20,797.22 C368.45,793.32 368.84,792.50 370.44,792.50 C372.82,792.50 374.44,797.83 373.53,802.69 ZM 572.50 803.01 C570.21,814.25 569.00,818.41 569.00,815.07 C569.00,813.31 573.23,790.60 573.66,790.08 C575.02,788.43 574.67,792.36 572.50,803.01 ZM 319.00 805.63 C319.00,807.97 318.61,810.12 318.13,810.42 C317.24,810.97 314.87,798.89 315.70,798.00 C316.84,796.78 319.00,801.77 319.00,805.63 ZM 448.96 792.75 C448.95,793.16 448.29,794.62 447.50,796.00 L 446.07 798.50 L 446.04 795.25 C446.01,793.01 446.47,792.00 447.50,792.00 C448.33,792.00 448.98,792.34 448.96,792.75 ZM 465.73 255.94 C485.19,277.08 502.71,295.03 518.98,310.44 C502.60,294.95 485.05,276.97 465.73,255.94 Z" fill="rgb(129,53,140)"/>
<path d="M 393.90 732.40 C406.26,731.53 417.13,731.00 424.46,731.00 L 432.00 731.00 L 432.00 560.00 L 324.93 560.00 C223.43,560.00 217.89,559.91 218.39,558.25 C218.68,557.29 219.71,551.10 220.68,544.50 C221.62,538.11 222.21,527.44 222.44,515.65 L 222.44 515.64 C222.83,495.96 222.23,473.18 220.65,462.00 C218.59,447.52 216.27,434.94 215.52,434.19 C214.19,432.86 214.19,435.47 215.54,447.01 C215.66,448.04 215.78,449.08 215.89,450.11 C215.79,449.23 215.69,448.35 215.59,447.47 C214.35,436.90 213.76,434.74 210.51,429.00 C208.49,425.42 203.97,419.53 200.48,415.91 C193.07,408.24 191.99,405.41 194.68,400.81 C196.46,397.75 197.55,397.30 214.94,392.36 C246.04,383.51 260.30,377.81 276.74,367.62 C289.60,359.65 315.04,340.42 330.50,326.99 C345.51,313.94 387.11,272.50 400.99,256.76 L 410.47 246.02 L 417.11 252.76 C420.77,256.47 426.07,261.74 428.89,264.47 L 434.02 269.45 L 435.00 268.47 L 435.00 559.00 L 649.26 559.00 L 648.62 555.25 C646.07,540.28 644.78,523.20 644.77,504.00 C644.75,481.13 645.66,469.55 649.15,448.20 C650.86,437.72 651.71,434.69 653.16,433.91 C653.97,433.48 655.34,431.78 656.53,429.79 C654.36,434.36 653.35,439.33 652.45,447.00 C643.31,524.79 660.98,599.87 700.25,650.07 C704.24,655.17 710.17,662.75 713.43,666.92 C722.37,678.36 740.73,704.82 750.27,720.00 C760.07,735.61 766.10,747.24 768.39,754.94 C770.21,761.06 770.48,772.17 769.01,779.94 C766.94,790.88 763.12,795.00 755.05,795.00 C751.84,795.00 750.22,794.29 747.17,791.54 C742.43,787.25 739.39,785.95 715.00,777.71 C645.46,754.24 574.42,739.80 500.00,734.00 C474.83,732.04 418.64,730.93 400.00,732.03 C397.96,732.15 395.93,732.27 393.90,732.40 ZM 495.45 705.31 C496.92,706.78 499.66,707.00 516.65,707.00 L 536.15 707.00 L 538.83 704.17 C540.30,702.62 543.43,697.78 545.78,693.42 C548.13,689.06 550.96,684.38 552.05,683.00 L 554.05 680.50 L 556.85 683.75 C558.39,685.54 561.78,691.05 564.39,696.00 C567.00,700.95 569.98,705.45 571.00,706.00 C573.79,707.49 611.29,707.31 612.80,705.80 C614.53,704.07 614.27,695.72 612.34,690.88 C611.42,688.59 606.48,681.15 601.36,674.34 C600.35,673.00 599.43,671.78 598.58,670.66 C592.81,663.03 590.61,660.12 591.33,658.70 C591.88,657.62 594.13,657.39 597.79,656.60 C602.03,655.68 607.30,653.92 609.50,652.69 C612.94,650.76 613.54,649.91 613.82,646.61 C614.31,640.63 608.06,635.31 589.25,625.69 C575.31,618.56 574.00,617.66 573.98,615.20 C573.93,609.23 568.29,600.26 562.80,597.40 C558.88,595.36 549.20,595.61 544.98,597.86 C540.81,600.08 536.30,606.96 534.64,613.64 L 533.43 618.50 L 518.91 626.00 C502.66,634.40 496.85,638.53 494.99,643.03 C492.41,649.26 497.52,653.59 511.03,656.64 C514.86,657.51 518.00,658.51 518.00,658.88 C518.00,659.85 513.77,665.91 505.84,676.28 C497.14,687.65 494.98,691.81 494.29,698.44 C493.88,702.48 494.13,703.99 495.45,705.31 ZM 347.39 452.86 C353.84,456.30 354.66,456.46 358.41,455.04 C360.95,454.07 395.88,422.98 399.36,418.58 C400.51,417.13 400.97,415.48 400.57,414.23 C399.59,411.14 338.83,377.57 335.66,378.37 C334.34,378.70 330.62,381.09 327.38,383.68 C324.15,386.27 319.48,390.01 317.00,392.00 C314.52,393.99 307.77,398.83 302.00,402.75 C290.14,410.79 287.00,413.46 287.00,415.49 C287.00,417.56 291.76,420.82 308.50,430.23 C316.75,434.86 327.55,441.15 332.50,444.19 C337.45,447.23 344.15,451.13 347.39,452.86 ZM 309.13 498.81 C324.73,508.79 338.23,516.97 339.13,516.98 C340.02,516.99 341.33,516.31 342.02,515.47 C343.26,513.98 352.00,472.78 352.00,468.44 C352.00,467.25 351.11,465.14 350.03,463.77 C348.15,461.38 288.70,425.26 285.09,424.31 C281.53,423.38 280.90,426.33 279.48,450.58 C278.33,470.34 278.32,474.84 279.43,477.48 C280.52,480.08 285.91,483.96 309.13,498.81 ZM 412.30 899.75 C407.00,894.18 403.85,886.58 403.26,877.95 C402.80,871.22 403.04,869.59 405.22,864.84 C406.58,861.85 409.23,857.66 411.10,855.51 L 414.05 852.13 C418.24,849.93 423.02,848.54 428.16,848.21 C431.82,847.98 436.40,848.31 438.32,848.94 C443.44,850.63 450.45,857.26 453.42,863.21 C458.43,873.27 456.31,888.29 448.48,898.16 L 445.03 902.50 L 447.76 902.77 C453.10,903.31 454.96,904.05 456.04,906.08 C456.89,907.67 456.78,908.68 455.55,910.57 C454.67,911.91 453.28,913.00 452.46,913.00 C451.64,913.00 450.11,913.54 449.06,914.19 C448.93,914.28 448.81,914.35 448.69,914.42 C450.15,913.22 447.54,913.06 428.68,913.03 C415.62,913.01 406.09,912.58 404.93,911.96 C403.83,911.37 403.00,909.88 403.00,908.46 C403.00,906.76 402.45,906.00 401.20,906.00 C400.00,906.00 399.02,906.44 398.32,907.14 C398.98,906.43 399.82,906.00 400.74,906.00 C401.47,906.00 403.20,905.26 404.58,904.36 C407.08,902.72 407.08,902.72 405.10,900.61 C404.18,899.62 403.20,898.13 402.26,896.37 C405.01,901.49 407.29,903.00 411.37,903.00 L 415.39 903.00 ZM 351.53 513.05 C352.99,515.41 353.26,515.17 373.31,493.65 C382.96,483.29 391.64,473.18 392.58,471.18 C394.56,467.01 403.99,430.65 404.00,427.18 C404.00,425.64 403.50,424.96 402.50,425.18 C400.03,425.71 361.23,462.03 360.10,464.87 C358.52,468.83 350.85,511.96 351.53,513.05 ZM 454.01 979.52 C452.99,978.28 448.22,977.99 425.96,977.77 L 399.13 977.50 L 403.21 971.50 C409.16,962.75 414.68,950.48 416.97,940.89 C417.07,940.49 417.16,940.10 417.25,939.73 C418.70,933.72 419.17,931.76 418.50,931.22 C418.17,930.96 417.58,931.03 416.70,931.14 C416.59,931.15 416.47,931.17 416.35,931.18 C417.81,931.01 419.00,930.45 419.00,929.93 C419.00,929.41 423.65,929.00 429.45,929.00 L 439.91 929.00 L 440.54 932.75 C442.89,946.73 448.21,960.23 455.46,970.61 C457.96,974.18 460.00,977.30 460.00,977.55 C460.00,977.80 458.60,978.00 456.89,978.00 C454.54,978.00 453.93,978.36 454.36,979.50 C454.47,979.79 454.38,980.02 453.88,980.21 C454.26,980.02 454.24,979.79 454.01,979.52 ZM 465.00 1013.00 C465.00,1012.35 451.67,1012.00 427.00,1012.00 L 389.00 1012.00 L 389.00 1007.43 C389.00,1004.92 389.49,1001.96 390.08,1000.85 C391.03,999.08 390.99,998.20 390.02,998.25 C390.51,998.00 391.02,997.75 391.57,997.51 L 397.25 995.00 L 464.15 995.00 L 466.93 997.78 C468.81,999.65 469.93,1002.08 470.41,1005.27 C471.25,1010.83 470.73,1012.00 467.44,1012.00 C466.10,1012.00 465.00,1012.45 465.00,1013.00 ZM 461.09 990.84 C459.99,991.00 458.61,991.57 457.73,992.20 C456.50,991.29 447.78,990.94 427.25,990.76 L 396.50 990.50 L 395.51 988.25 C394.75,986.51 393.32,985.80 392.02,986.17 C392.30,986.06 392.58,986.00 392.84,986.00 C393.81,986.00 395.16,985.44 395.85,984.75 C397.34,983.26 451.64,982.39 459.00,983.73 C463.14,984.49 463.50,984.79 463.50,987.53 C463.50,989.91 463.02,990.57 461.09,990.84 ZM 445.95 925.56 C445.85,925.69 445.70,925.80 445.51,925.91 C445.32,925.32 439.43,925.00 428.49,925.00 C410.21,925.00 407.00,924.40 407.00,920.96 C407.00,919.74 406.32,919.00 405.20,919.00 C403.98,919.00 402.83,919.57 402.05,920.43 C402.81,919.57 403.92,919.00 405.08,919.00 C406.00,919.00 407.32,918.33 408.00,917.50 C409.07,916.21 408.70,916.00 405.34,916.00 C403.19,916.00 401.27,915.52 399.81,914.71 C405.77,916.64 444.04,916.67 448.33,914.67 C447.26,915.40 447.54,915.59 449.32,916.47 C452.40,918.01 452.40,923.37 449.32,923.81 C448.13,923.98 446.61,924.77 445.95,925.56 ZM 136.41 878.95 C145.04,875.72 151.17,869.58 153.49,862.52 C152.20,867.75 149.61,873.37 146.80,876.58 C145.15,878.46 141.03,881.32 137.65,882.93 C126.04,888.47 116.26,887.94 108.99,881.38 L 105.10 877.86 L 105.65 881.21 C105.69,881.46 105.71,881.74 105.71,882.04 C105.35,878.15 103.24,874.40 99.96,872.17 C99.86,872.10 99.75,872.03 99.65,871.96 L 102.83 873.83 L 101.41 870.45 C99.21,865.18 99.76,857.02 102.22,850.15 C101.89,851.14 101.64,852.16 101.47,853.19 C100.06,861.55 106.53,874.18 114.55,878.73 C119.77,881.69 128.84,881.78 136.41,878.95 ZM 774.50 898.90 C780.08,897.38 787.66,889.51 790.11,882.88 C788.20,888.96 784.97,895.41 782.19,898.38 C780.71,899.96 777.70,902.09 775.50,903.10 C764.96,907.99 746.25,901.96 739.90,891.63 C736.14,885.51 735.56,881.19 737.50,873.50 C737.94,871.73 738.43,870.06 738.95,868.49 C735.74,880.73 742.33,891.25 757.54,897.50 C764.09,900.20 768.43,900.55 774.50,898.90 ZM 189.63 858.04 C196.06,855.78 201.67,851.82 203.19,848.47 L 203.20 848.45 C202.24,852.46 200.01,856.52 197.28,858.60 C188.13,865.58 173.36,867.57 165.00,862.96 C162.40,861.52 159.22,858.56 157.46,855.94 L 154.43 851.42 L 154.40 853.87 C154.32,853.23 154.22,852.59 154.08,851.94 C152.71,845.57 150.04,840.52 146.40,836.97 C148.33,838.77 150.00,840.95 151.34,843.50 L 152.92 846.50 L 152.97 841.50 C153.02,837.33 153.96,833.05 155.59,829.16 C154.37,832.72 154.17,836.52 155.00,840.52 C158.31,856.44 173.01,863.88 189.63,858.04 ZM 384.50 817.28 C390.77,813.99 393.74,810.19 395.55,803.10 C395.72,802.44 395.87,801.79 396.00,801.15 C394.61,811.11 389.65,819.04 382.29,822.64 C378.29,824.60 374.94,825.39 369.67,825.63 C356.11,826.23 347.87,821.04 344.52,809.77 C342.38,802.56 342.62,797.13 345.41,789.44 C345.57,789.00 345.73,788.58 345.90,788.16 C345.14,790.91 344.95,794.04 345.23,797.89 C345.96,808.08 350.23,814.97 358.01,818.46 C363.22,820.81 379.13,820.10 384.50,817.28 ZM 255.55 838.69 C263.45,837.03 269.93,833.15 273.57,827.89 C274.32,826.81 274.88,825.95 275.30,825.10 C275.09,825.65 274.87,826.24 274.62,826.87 C271.55,834.70 267.59,838.97 260.50,842.11 C254.86,844.61 243.48,845.55 238.27,843.94 C230.48,841.55 223.00,829.64 223.00,819.62 C223.00,816.33 224.19,811.53 225.86,807.30 C225.55,808.91 225.50,810.98 225.50,814.34 C225.51,821.46 225.88,823.17 228.39,827.71 C232.44,835.03 239.55,839.55 247.50,839.88 C248.60,839.92 252.22,839.39 255.55,838.69 ZM 314.50 826.96 C323.06,825.74 330.32,822.34 335.12,817.30 C337.69,814.60 339.26,812.07 340.13,808.90 C337.90,818.82 331.56,826.52 322.41,829.95 C314.75,832.82 300.08,833.93 297.95,831.81 C297.07,830.93 295.14,822.54 293.09,810.72 C290.38,795.07 289.93,790.79 290.90,789.62 C291.52,788.88 291.91,787.60 291.84,786.65 C292.25,790.04 293.44,797.50 294.94,805.91 C297.39,819.65 298.17,825.32 301.26,827.24 C303.42,828.58 306.71,828.10 312.47,827.25 C313.12,827.16 313.79,827.06 314.50,826.96 ZM 532.33 822.64 C536.53,820.88 539.37,817.61 540.50,814.04 C540.25,815.30 539.89,816.62 539.41,818.00 C537.62,823.16 535.67,825.60 531.72,827.64 C525.83,830.69 510.42,829.90 501.21,826.09 C498.57,824.99 498.00,824.20 497.98,821.63 C497.95,815.09 501.17,784.42 502.06,782.76 C502.58,781.81 503.00,780.11 503.00,778.99 C503.00,777.82 503.85,776.88 505.37,776.21 C503.16,778.13 502.81,783.34 501.32,797.60 C500.01,810.12 499.50,818.87 500.04,819.43 C501.81,821.23 514.60,823.89 521.78,823.94 C525.81,823.97 530.52,823.39 532.33,822.64 ZM 492.21 822.75 C492.48,825.32 492.24,825.51 488.50,825.62 C480.91,825.86 478.94,825.11 477.40,821.43 C476.08,818.27 475.63,818.00 471.61,818.00 C469.21,818.00 465.92,817.73 464.28,817.41 C461.69,816.89 461.16,817.19 460.08,819.80 C459.23,821.86 457.94,822.96 455.91,823.37 C452.53,824.04 444.00,823.08 444.00,822.02 C444.00,819.63 456.86,788.85 462.52,777.17 C457.27,788.07 445.93,815.36 446.38,816.54 C446.79,817.61 448.67,818.00 453.44,818.00 C459.66,818.00 460.02,817.87 461.50,815.00 C462.86,812.36 463.58,812.00 467.40,812.00 C474.92,812.00 478.06,813.04 479.14,815.87 C480.52,819.49 481.64,819.97 488.82,819.98 C493.71,820.00 494.84,819.83 494.73,818.74 C494.83,819.57 494.42,820.00 493.53,820.00 C492.38,820.00 492.01,820.77 492.21,822.75 ZM 581.32 830.88 C584.59,829.19 587.82,826.03 589.04,823.37 C586.40,831.66 584.13,834.04 579.67,836.06 C570.95,840.02 555.96,837.02 549.67,830.06 C545.23,825.14 544.48,820.63 546.51,811.00 C547.38,806.88 548.95,798.81 550.01,793.08 C550.86,788.49 551.95,784.34 552.72,782.64 C550.71,787.49 546.63,813.23 547.41,817.36 C548.31,822.17 553.64,827.73 559.50,829.98 C565.18,832.17 577.81,832.68 581.32,830.88 ZM 729.56 885.56 C725.83,888.32 717.92,886.62 713.61,882.12 C711.46,879.88 710.64,877.81 710.11,873.34 C708.93,863.32 707.37,862.58 704.09,870.50 C702.20,875.04 701.38,876.00 699.36,876.00 C696.83,876.00 689.00,872.45 689.00,871.30 C689.00,870.72 690.15,867.24 692.01,862.07 C691.42,863.83 691.07,864.99 691.06,865.31 C691.02,866.51 692.50,867.78 695.54,869.12 C702.19,872.06 704.02,871.44 705.98,865.56 C706.89,862.85 708.16,860.45 708.81,860.23 C710.28,859.74 712.00,864.08 712.01,868.32 C712.05,875.79 718.03,881.00 726.59,881.00 C729.18,881.00 731.59,880.61 732.36,880.09 C731.99,880.66 731.09,881.01 729.69,881.03 C727.52,881.06 727.52,881.08 729.50,882.59 C731.48,884.11 731.48,884.14 729.56,885.56 ZM 665.15 854.25 C666.04,853.18 666.96,851.56 667.64,850.04 C666.61,853.30 664.86,857.57 663.53,859.60 C662.66,860.92 661.18,861.95 660.23,861.90 C658.19,861.77 630.41,852.75 629.62,851.95 C629.35,851.69 631.20,844.64 633.66,835.95 C631.35,844.32 631.11,846.55 632.02,846.87 C645.34,851.57 659.05,855.84 661.10,855.91 C662.52,855.96 664.35,855.21 665.15,854.25 ZM 435.75 817.37 C436.56,817.15 437.08,816.94 437.41,816.29 C437.30,816.75 437.19,817.00 437.07,817.00 C436.55,817.00 435.99,818.24 435.82,819.75 C435.52,822.34 435.17,822.52 429.99,822.79 C426.57,822.97 424.01,822.61 423.24,821.84 C422.35,820.95 422.00,815.85 422.00,803.80 L 422.00 787.00 L 416.61 787.00 C412.61,787.00 411.06,786.59 410.61,785.42 C409.66,782.95 409.89,778.18 411.00,777.50 C411.55,777.16 412.00,775.77 412.00,774.42 C412.00,773.65 412.18,773.00 412.60,772.45 C412.14,773.20 412.00,774.17 412.00,775.39 C412.00,781.34 412.66,782.00 418.61,782.00 L 424.00 782.00 L 424.00 799.03 C424.00,815.76 424.04,816.08 426.25,816.97 C428.93,818.04 432.65,818.20 435.75,817.37 ZM 90.00 889.02 C90.00,889.00 90.00,888.98 90.00,888.96 C90.00,887.21 86.03,887.02 79.89,888.46 C71.76,890.38 67.65,890.39 63.97,888.48 C60.62,886.75 58.00,882.34 58.00,878.45 C58.00,875.72 58.77,872.39 59.97,869.28 C59.17,873.76 60.71,878.33 64.11,881.38 C67.28,884.22 67.45,884.25 75.41,883.52 C91.32,882.07 91.50,882.09 91.50,885.50 C91.50,887.15 91.22,888.06 90.00,889.02 ZM 223.61 846.52 C224.54,846.13 225.24,845.77 225.74,845.41 C225.69,845.47 225.64,845.51 225.58,845.55 C224.80,846.13 224.23,847.46 224.33,848.51 C224.44,849.70 223.46,850.93 221.72,851.77 C220.20,852.52 217.39,853.39 215.50,853.69 C215.19,853.74 214.92,853.80 214.67,853.85 C214.04,853.98 213.54,854.08 213.10,853.98 C211.28,853.54 210.30,849.65 204.39,830.08 C200.19,816.17 198.88,810.54 199.76,810.25 C200.44,810.02 201.00,808.76 201.00,807.44 C201.00,806.82 201.14,806.25 201.42,805.73 C200.89,807.86 202.42,812.78 207.14,827.92 L 207.55 829.25 L 213.39 848.00 L 216.72 848.00 C218.56,848.00 221.66,847.33 223.61,846.52 ZM 626.20 842.25 C626.84,841.51 627.68,840.00 628.32,838.52 C627.45,841.63 625.93,845.45 624.46,847.70 C622.60,850.53 622.52,850.53 606.25,846.23 C598.09,844.07 594.56,843.36 593.52,841.35 C592.74,839.86 593.33,837.66 594.41,833.62 C594.57,833.04 594.74,832.42 594.91,831.76 C595.88,828.06 598.11,819.00 600.04,810.91 C599.58,812.84 599.10,814.86 598.61,816.91 C596.06,827.58 594.16,836.49 594.37,836.71 C595.13,837.47 619.53,843.80 622.10,843.90 C623.52,843.95 625.37,843.21 626.20,842.25 ZM 356.78 438.44 C354.22,440.24 348.42,440.44 345.50,438.85 C337.49,434.46 340.85,426.05 350.12,427.29 C357.63,428.30 361.65,435.03 356.78,438.44 ZM 322.24 419.95 C321.93,420.04 321.65,420.12 321.38,420.19 C319.73,420.65 318.87,420.90 318.03,420.84 C316.97,420.78 315.93,420.24 313.40,419.09 C308.21,416.74 307.24,414.43 310.15,411.34 C315.16,406.00 328.24,409.92 326.64,416.28 C326.15,418.24 325.03,419.18 322.24,419.95 ZM 92.58 899.71 C97.64,897.15 102.29,892.67 104.44,888.58 C103.07,892.87 100.82,897.57 98.74,899.83 C97.51,901.17 93.80,903.55 90.50,905.13 C86.06,907.25 83.01,908.00 78.79,908.00 C73.33,908.00 72.96,907.84 70.58,904.33 C68.02,900.56 68.02,899.00 70.59,899.00 C71.77,899.00 71.85,898.58 70.99,896.98 C70.43,895.93 70.20,895.13 70.39,894.54 C70.46,895.48 71.29,897.35 72.50,899.19 L 75.20 903.26 L 81.37 902.76 C85.17,902.46 89.47,901.29 92.58,899.71 ZM 352.96 417.81 C348.68,422.40 337.00,419.34 337.00,413.63 C337.00,410.16 338.95,409.00 344.75,409.00 C349.09,409.00 350.55,409.46 352.55,411.45 C355.52,414.43 355.56,415.02 352.96,417.81 ZM 378.43 419.02 C374.72,420.44 371.97,420.23 368.00,418.25 C360.78,414.64 364.38,406.99 372.66,408.33 C379.91,409.51 383.92,416.94 378.43,419.02 ZM 348.54 399.97 C343.85,403.86 333.00,400.78 333.00,395.55 C333.00,392.24 336.21,390.65 341.69,391.27 C348.53,392.04 352.31,396.84 348.54,399.97 ZM 137.49 866.75 C137.89,865.95 137.84,864.94 137.51,863.18 C136.53,858.00 133.55,852.64 129.97,849.63 C126.39,846.62 124.12,846.37 119.95,848.53 C117.90,849.58 117.15,850.53 117.02,852.40 C117.01,852.14 117.00,851.88 117.00,851.63 C117.00,847.89 117.49,846.77 120.08,844.59 C127.50,838.35 135.34,843.39 138.92,856.72 C139.89,860.32 139.25,864.21 137.49,866.75 ZM 318.82 476.20 C318.55,478.97 318.05,479.55 315.72,479.82 C310.75,480.39 303.57,471.16 305.36,466.50 C306.45,463.66 311.03,464.80 315.18,468.95 C318.45,472.21 319.08,473.47 318.82,476.20 ZM 240.51 809.28 C240.71,808.36 241.09,807.43 241.68,806.23 C245.06,799.31 254.10,798.83 258.07,805.36 C260.39,809.17 262.38,818.34 261.58,821.53 C261.16,823.22 260.32,824.72 259.22,825.95 C259.71,825.21 260.00,824.38 260.00,823.53 C260.00,818.69 256.91,811.10 253.91,808.58 C250.40,805.62 247.20,805.33 242.87,807.57 C241.60,808.22 240.87,808.65 240.51,809.28 ZM 323.61 812.38 C324.57,810.75 324.81,808.62 324.39,805.88 C323.56,800.42 321.56,796.37 319.06,795.03 C316.64,793.74 308.42,793.69 308.02,794.91 C307.71,792.04 307.64,789.96 307.96,789.64 C309.43,788.17 317.57,787.70 319.91,788.95 C323.79,791.03 325.99,795.93 325.99,802.50 C325.99,806.88 325.23,810.12 323.61,812.38 ZM 361.02 796.36 C361.01,795.90 361.00,795.44 361.00,794.97 C361.00,785.59 363.60,782.09 370.58,782.03 C375.89,781.99 378.67,784.90 380.17,792.09 C381.42,798.04 380.86,802.81 378.52,806.31 C378.88,805.33 378.99,804.08 378.98,802.18 C378.95,796.55 376.01,789.61 372.95,787.97 C370.48,786.65 364.59,787.27 362.41,789.07 C361.42,789.90 360.95,792.99 361.02,796.36 ZM 675.60 823.46 C675.34,824.56 675.04,825.55 674.72,826.29 L 673.07 830.08 L 668.83 827.91 C664.25,825.58 656.37,822.74 653.91,822.42 C653.72,822.00 653.71,821.52 653.78,820.91 C654.29,816.61 655.58,816.48 664.23,819.89 C664.91,820.15 665.56,820.41 666.16,820.64 L 666.16 820.65 C672.47,823.14 674.68,824.01 675.60,823.46 ZM 753.47 876.64 C754.40,871.14 757.32,865.75 761.15,862.53 C763.76,860.33 765.06,859.91 767.84,860.36 C772.00,861.04 775.68,864.27 776.49,867.97 C776.95,870.07 776.08,873.72 774.55,877.23 C775.78,871.60 771.46,865.98 765.12,866.02 C760.94,866.05 758.05,868.06 755.10,873.00 C754.36,874.24 753.82,875.46 753.47,876.64 ZM 665.81 834.39 C664.54,838.35 662.47,843.00 661.62,843.02 C660.26,843.03 661.43,843.84 663.03,844.41 C662.30,844.22 661.52,844.02 660.74,843.82 C648.10,840.64 646.93,839.86 649.01,835.99 C649.99,834.15 650.14,834.16 655.66,836.06 C663.08,838.61 663.67,838.54 665.53,834.93 C665.63,834.75 665.72,834.57 665.81,834.39 ZM 185.12 821.00 C188.75,821.00 190.09,820.59 190.90,819.18 C190.70,819.83 190.49,820.49 190.27,821.12 C188.64,825.70 188.32,826.00 185.02,826.01 C179.91,826.01 174.38,827.77 171.41,830.32 C170.47,831.13 169.88,831.75 169.55,832.43 C169.68,831.45 169.90,830.45 170.23,829.46 C171.87,824.54 178.10,821.00 185.12,821.00 ZM 681.89 867.21 C680.67,869.48 680.22,869.44 672.66,866.24 C671.43,865.72 670.49,865.43 669.96,864.80 C668.54,863.12 670.00,859.02 676.21,841.49 C676.55,840.53 676.91,839.53 677.28,838.48 C673.65,848.86 671.03,857.63 671.33,858.43 C672.06,860.32 677.55,862.81 681.25,862.92 C682.45,862.95 683.47,862.88 683.85,862.74 C682.99,864.84 682.31,866.42 681.89,867.21 ZM 90.03 859.90 C89.87,860.44 89.70,861.01 89.50,861.63 C88.12,866.04 87.41,867.00 85.56,867.00 C82.38,867.00 76.78,868.99 75.00,870.74 C74.63,871.11 74.29,871.40 74.21,871.59 C73.81,871.38 73.57,871.05 73.40,870.59 C72.08,867.16 79.62,862.00 85.93,862.00 C87.79,862.00 89.20,861.24 90.03,859.90 ZM 118.52 827.07 C120.67,823.75 122.48,820.59 122.91,819.46 C122.88,819.91 122.69,820.45 122.37,821.15 C121.40,823.27 117.04,832.50 116.21,834.18 C116.05,834.50 117.67,834.11 119.95,833.29 C112.16,836.33 106.39,841.25 103.42,847.22 C104.48,844.97 105.75,842.95 107.21,841.34 C109.16,839.20 109.16,839.19 107.09,838.53 C105.94,838.16 105.01,837.33 105.01,836.68 C105.03,835.61 106.02,832.46 107.53,828.55 C106.72,831.16 107.20,832.02 108.75,832.92 C112.37,835.03 114.01,834.05 118.52,827.07 ZM 515.11 809.85 C515.12,809.36 515.14,808.85 515.18,808.36 C515.48,804.80 515.75,804.48 518.82,804.18 C522.68,803.81 527.00,806.25 527.00,808.80 C527.00,810.77 526.16,812.41 524.73,813.51 C525.17,811.94 522.62,810.17 518.75,809.46 C516.17,808.99 515.35,808.93 515.11,809.85 ZM 368.87 472.44 C366.44,475.53 365.00,475.72 365.00,472.96 C365.00,468.25 372.90,457.41 374.47,459.95 C375.23,461.19 371.94,468.54 368.87,472.44 ZM 723.61 848.68 C724.29,847.67 723.77,847.20 721.68,845.41 C718.00,842.24 715.70,842.29 714.30,845.62 C714.50,845.07 714.74,844.43 715.01,843.71 C717.34,837.47 719.41,836.49 723.78,839.56 C726.66,841.58 726.59,844.99 723.61,848.68 ZM 726.16 868.70 C724.90,865.19 724.28,861.84 725.32,861.52 C725.97,861.33 727.82,860.87 729.44,860.52 C734.60,859.38 738.99,855.26 740.46,850.62 C738.62,857.70 732.30,866.00 728.00,866.00 C726.60,866.00 726.04,867.12 726.16,868.70 ZM 363.20 497.25 C360.08,500.58 358.62,500.78 359.56,497.75 C361.97,489.94 369.00,481.60 369.00,486.55 C369.00,488.83 366.14,494.11 363.20,497.25 ZM 517.02 790.22 C516.99,788.58 517.18,786.70 517.61,785.58 C518.30,783.78 522.19,783.50 525.07,785.04 C527.26,786.21 527.70,790.90 525.80,792.80 C525.33,793.27 524.24,793.62 523.00,793.82 C524.14,793.56 525.00,793.12 525.00,792.56 C525.00,790.80 524.41,790.43 520.25,789.54 C517.81,789.02 517.15,789.09 517.02,790.22 ZM 390.86 449.87 C385.74,456.84 384.20,454.49 388.42,446.15 C390.90,441.26 393.60,438.27 394.62,439.29 C395.75,440.42 393.83,445.83 390.86,449.87 ZM 438.43 793.71 C438.50,792.44 438.58,791.26 438.65,790.25 L 439.30 782.00 L 444.11 782.00 C447.06,782.00 448.89,781.50 449.91,780.22 C449.79,780.67 449.66,781.12 449.53,781.55 L 447.81 787.00 L 439.27 787.00 L 438.64 791.64 C438.56,792.17 438.49,792.87 438.43,793.71 ZM 383.78 475.74 C379.78,479.99 378.83,478.21 381.89,472.21 C383.92,468.23 387.66,464.33 388.56,465.23 C389.41,466.08 386.17,473.19 383.78,475.74 ZM 470.75 802.20 C470.01,802.14 469.32,802.04 468.73,801.92 C469.09,801.97 469.49,802.00 469.91,802.00 C472.77,802.00 472.80,801.94 471.74,798.50 C471.15,796.58 470.36,795.00 469.99,795.00 C469.56,795.00 468.60,796.56 467.89,798.15 C468.21,797.21 468.59,796.12 469.00,795.00 C470.10,791.99 471.00,789.32 471.00,789.06 C471.00,788.81 471.41,789.03 471.92,789.55 C473.16,790.83 475.98,801.93 475.15,802.26 C474.79,802.41 472.81,802.38 470.75,802.20 ZM 540.74 807.94 C540.29,806.20 539.38,804.54 537.97,803.12 L 534.93 800.09 L 538.47 796.79 C540.23,795.15 541.44,793.58 542.10,792.06 C541.71,793.17 541.18,794.51 540.50,796.19 C538.22,801.81 538.13,802.55 539.50,804.64 C540.11,805.57 540.52,806.68 540.74,807.94 ZM 450.38 772.86 C449.11,771.18 445.25,770.91 433.47,770.43 C425.89,770.12 420.94,770.03 417.73,770.35 C422.03,769.76 429.12,769.92 440.27,770.66 C448.20,771.18 449.74,771.38 450.38,772.86 ZM 276.21 808.79 C276.48,810.21 276.68,811.71 276.79,813.29 C277.08,817.37 276.99,819.63 276.11,822.65 C276.44,820.97 276.49,818.77 276.48,815.08 C276.48,812.51 276.40,810.47 276.21,808.79 ZM 280.02 747.19 C295.08,744.20 309.94,741.63 324.00,739.62 C329.54,738.83 335.66,738.04 342.10,737.28 C321.25,739.86 300.57,743.16 280.02,747.19 ZM 667.93 808.86 L 676.50 811.57 L 676.48 812.96 C675.87,811.72 674.10,810.88 667.93,808.86 ZM 387.64 776.42 C391.07,778.78 393.56,782.08 394.99,786.20 C393.84,783.39 392.08,780.77 389.71,778.27 C389.08,777.60 388.38,776.98 387.64,776.42 ZM 744.55 857.30 C748.04,852.72 752.42,850.11 757.83,849.36 C752.65,850.20 748.10,852.88 744.55,857.30 ZM 404.25 859.94 C401.63,863.28 399.40,867.25 398.38,870.75 C397.20,874.82 396.96,879.10 397.66,883.47 C397.56,882.93 397.48,882.41 397.42,881.90 C396.46,873.73 399.14,865.96 404.25,859.94 ZM 668.48 846.16 C668.18,845.94 666.70,845.45 664.69,844.88 C665.04,844.94 665.38,844.98 665.69,844.98 C666.90,844.99 668.12,845.38 668.41,845.85 C668.45,845.92 668.48,846.02 668.48,846.16 ZM 179.13 810.91 C173.21,812.30 166.59,815.31 162.59,818.91 C166.91,814.98 173.36,812.15 179.13,810.91 ZM 684.74 860.49 C685.88,857.36 688.22,851.08 690.96,843.82 C688.79,849.87 686.52,855.97 684.74,860.49 ZM 740.98 847.16 C740.89,842.93 737.71,838.35 733.09,834.55 C737.75,838.32 740.96,842.81 740.98,846.87 C740.98,846.96 740.98,847.06 740.98,847.16 ZM 527.65 776.77 C533.36,778.24 537.48,780.60 540.37,784.03 C537.57,780.76 533.16,778.29 527.65,776.77 ZM 71.39 893.58 C72.37,893.16 74.04,893.00 76.54,893.00 C79.06,893.00 82.21,892.46 84.82,891.71 C82.42,892.59 79.86,893.00 76.85,893.00 C74.63,893.00 72.56,893.23 71.39,893.58 ZM 385.07 1002.33 C383.83,1004.62 383.00,1007.66 383.00,1010.47 C383.00,1007.02 383.61,1004.42 385.07,1002.33 ZM 542.60 790.35 C542.94,788.29 542.24,786.28 540.53,784.22 C542.53,786.61 543.21,787.77 542.60,790.35 ZM 443.83 926.41 C441.18,926.87 435.67,927.00 424.25,927.00 C433.79,927.00 440.78,926.78 443.83,926.41 ZM 267.53 794.37 C270.17,796.15 272.26,798.54 273.80,801.53 C271.99,798.45 269.95,796.10 267.53,794.37 ZM 228.42 802.02 C228.78,801.43 229.14,800.88 229.50,800.41 C230.92,798.54 234.90,795.70 238.68,793.84 C239.68,793.35 240.56,792.93 241.37,792.57 C240.49,792.97 239.51,793.45 238.39,794.03 C233.54,796.50 230.71,798.75 228.54,801.84 ZM 63.88 862.28 C64.16,861.93 64.45,861.61 64.75,861.32 C67.10,858.97 70.30,856.83 73.65,855.22 C69.93,857.07 66.41,859.58 63.88,862.28 ZM 213.41 801.40 C213.93,801.49 214.30,801.67 214.47,801.95 C214.57,802.11 214.86,802.95 215.30,804.31 C214.62,802.61 214.05,801.77 213.41,801.40 ZM 449.39 993.75 C444.43,993.94 436.53,994.00 424.00,994.00 C434.13,994.00 443.38,993.90 449.39,993.75 ZM 518.69 775.25 C516.88,775.11 515.00,775.05 513.07,775.07 C512.55,775.08 512.07,775.08 511.61,775.08 C511.25,775.08 510.90,775.09 510.56,775.09 C512.88,774.90 515.63,774.95 518.69,775.25 ZM 88.28 870.58 C88.89,870.51 89.53,870.44 90.19,870.37 C93.08,870.05 94.80,870.02 96.36,870.43 C94.73,870.10 92.48,870.16 88.28,870.58 ZM 169.65 836.90 C170.36,840.02 171.70,842.63 173.50,844.60 C171.54,842.55 170.16,839.86 169.65,836.90 ZM 778.72 854.57 C777.73,853.96 776.67,853.37 775.56,852.80 C773.17,851.58 770.82,850.67 768.52,850.05 C772.11,850.96 775.59,852.53 778.72,854.57 ZM 662.97 826.58 C665.17,827.52 666.67,828.56 666.82,829.31 C666.85,829.47 666.86,829.68 666.84,829.92 C666.52,828.59 665.29,827.59 662.97,826.58 ZM 190.66 811.52 C191.52,812.16 192.00,813.03 192.00,814.15 C192.00,814.27 191.99,814.42 191.97,814.59 C191.87,813.36 191.43,812.27 190.66,811.52 ZM 135.15 868.92 C131.87,870.68 127.77,870.35 124.93,868.26 C128.03,870.54 132.60,870.67 135.87,868.38 C136.17,868.17 136.43,867.97 136.65,867.78 C136.20,868.24 135.70,868.63 135.15,868.92 ZM 366.12 809.37 C368.28,810.88 370.78,811.28 373.16,810.60 C370.83,811.35 368.38,810.95 366.12,809.37 C364.96,808.56 363.99,807.42 363.21,805.98 C364.06,807.37 365.19,808.72 366.12,809.37 ZM 350.81 779.75 C353.09,777.15 355.85,775.29 359.26,774.05 C355.95,775.27 353.26,777.12 350.81,779.75 ZM 758.33 887.56 C759.49,888.08 761.02,888.42 762.31,888.50 C761.04,888.50 759.73,888.19 758.33,887.56 C756.16,886.61 754.72,885.36 753.93,883.65 C754.80,885.31 756.28,886.66 758.33,887.56 ZM 310.12 808.43 C310.96,812.40 311.84,815.75 312.28,816.18 C311.74,815.69 310.91,812.47 310.12,808.43 ZM 698.47 821.09 C698.00,820.25 695.84,818.94 693.46,817.87 C695.81,818.91 697.97,820.14 698.46,820.93 C698.47,820.95 698.48,821.01 698.47,821.09 ZM 75.65 871.89 C76.92,871.83 79.17,871.60 82.92,871.18 C81.80,871.31 80.58,871.46 79.27,871.62 C77.65,871.82 76.49,871.91 75.65,871.89 ZM 114.60 816.09 C113.08,816.37 112.33,817.42 110.64,821.10 C112.29,817.40 112.95,816.37 114.60,816.09 ZM 209.70 801.59 C207.76,802.02 205.25,802.88 203.78,803.61 C205.62,802.66 207.79,801.96 209.70,801.59 ZM 397.10 909.62 C396.92,910.82 397.18,912.12 397.97,913.22 C397.35,912.46 397.00,911.59 397.00,910.64 C397.00,910.29 397.03,909.95 397.10,909.62 ZM 121.29 832.80 C124.01,831.80 126.71,831.23 129.34,831.06 C126.76,831.26 124.07,831.83 121.29,832.80 ZM 90.55 853.83 C90.86,854.36 90.96,855.07 90.88,856.02 C90.87,855.75 90.84,855.48 90.81,855.20 C90.75,854.64 90.67,854.19 90.55,853.83 ZM 628.98 833.85 C628.61,833.59 628.02,833.37 627.13,833.13 C627.94,833.31 628.50,833.45 628.71,833.51 C628.84,833.55 628.92,833.67 628.98,833.85 ZM 123.80 867.25 C122.02,865.35 120.48,863.03 119.32,860.60 C120.54,863.05 122.14,865.48 123.80,867.25 ZM 203.70 843.83 C203.56,842.24 203.18,840.71 202.65,839.81 C203.03,840.34 203.32,841.17 203.53,842.32 C203.62,842.80 203.68,843.31 203.70,843.83 ZM 612.68 793.20 C615.08,793.80 617.26,794.61 617.85,795.32 C617.86,795.33 617.86,795.33 617.86,795.33 C617.28,794.67 615.08,793.84 612.68,793.20 ZM 732.34 878.59 C731.99,877.97 731.38,877.27 730.60,876.64 C730.40,876.48 730.19,876.27 729.98,876.03 C730.20,876.24 730.43,876.45 730.66,876.64 C731.50,877.34 732.06,878.00 732.34,878.59 ZM 300.27 780.79 C301.92,780.32 303.81,779.87 305.92,779.44 C307.89,779.05 309.79,778.75 311.61,778.56 C309.81,778.76 307.93,779.05 305.99,779.44 C303.90,779.87 301.98,780.32 300.27,780.79 ZM 200.68 839.34 C199.88,839.79 198.83,840.63 197.92,841.60 C199.02,840.42 199.93,839.67 200.68,839.34 ZM 618.05 796.84 C617.93,799.24 616.84,804.34 614.68,812.69 C616.80,804.51 617.91,799.27 618.05,796.84 ZM 641.73 808.96 C642.91,805.28 643.78,802.83 644.05,802.55 C644.10,802.51 644.17,802.48 644.27,802.46 C644.17,802.48 644.10,802.51 644.06,802.55 C643.81,802.80 642.94,805.22 641.73,808.96 ZM 605.52 792.36 C605.31,792.47 605.09,792.64 604.89,792.87 C604.95,792.73 605.01,792.63 605.05,792.58 C605.15,792.49 605.30,792.41 605.52,792.36 ZM 718.30 851.94 C717.23,851.99 716.16,851.69 715.11,851.05 C716.13,851.67 717.22,851.96 718.30,851.94 ZM 553.21 781.87 C553.21,781.87 553.21,781.86 553.22,781.86 C553.98,781.38 556.31,781.40 558.72,781.72 C556.33,781.40 554.02,781.40 553.21,781.87 ZM 519.52 815.00 C520.16,814.99 520.82,814.95 521.43,814.88 C520.95,814.96 520.44,815.00 519.91,815.00 C519.78,815.00 519.65,815.00 519.52,815.00 ZM 467.01 801.11 C467.03,801.25 467.16,801.39 467.38,801.51 C467.14,801.40 467.00,801.29 467.00,801.18 C467.00,801.16 467.00,801.13 467.01,801.11 ZM 116.25 816.00 C116.93,816.00 117.68,816.08 118.41,816.23 C117.67,816.09 116.89,816.01 116.11,816.00 C116.16,816.00 116.21,816.00 116.25,816.00 ZM 770.13 884.35 C770.01,884.48 769.88,884.61 769.75,884.73 C769.13,885.33 768.53,885.85 767.94,886.30 C768.68,885.73 769.42,885.07 770.13,884.35 ZM 791.85 873.56 C791.81,872.96 791.73,872.37 791.60,871.77 C791.74,872.38 791.82,872.96 791.85,873.56 ZM 252.14 790.55 C252.40,790.54 252.66,790.54 252.93,790.54 C253.29,790.54 253.65,790.55 254.00,790.56 C253.62,790.55 253.24,790.54 252.85,790.54 C252.61,790.54 252.37,790.54 252.14,790.55 ZM 291.82 786.43 L 291.81 786.41 C291.80,786.32 291.79,786.23 291.78,786.14 C291.79,786.23 291.80,786.33 291.82,786.43 ZM 454.95 248.63 L 457.09 246.50 L 457.09 246.50 ZM 790.22 867.68 C790.14,867.49 790.06,867.30 789.97,867.11 C790.06,867.30 790.14,867.49 790.22,867.68 Z" fill="rgb(247,167,49)"/>

</g>
</svg>